<?xml version="1.0" encoding="utf-8"?>
<!-- Generator: Adobe Illustrator 20.1.0, SVG Export Plug-In . SVG Version: 6.00 Build 0)  -->
<svg version="1.1" id="Calque_1" xmlns="http://www.w3.org/2000/svg" xmlns:xlink="http://www.w3.org/1999/xlink" x="0px" y="0px"
	 viewBox="0 0 1207.4 361.4" enable-background="new 0 0 1207.4 361.4" xml:space="preserve">
<g>
	<path fill="#FFD322" d="M300.9,271.8h-82.4l-24.7-112.3c-1.2-4.7-3-14-5.6-28c-2.5-14-4.4-25.7-5.6-35.1
		c-0.9,7.6-2.5,17.1-4.6,28.5c-2.1,11.3-4.2,21.8-6.3,31.3c-2.1,9.5-10.6,48.1-25.7,115.7H63.8L0,13.9h67.2l28,129.3
		c6.3,28.6,10.7,51.3,13.1,68.3c1.5-12,4.3-28.3,8.2-48.9c3.9-20.6,7.6-37.6,11-51.1l22.8-97.5h64.5l22,97.5
		c3.8,15.6,7.6,33.7,11.5,54.1c3.9,20.5,6.5,35.7,7.8,45.9c1.5-13.1,5.7-35.7,12.5-67.9l28.6-129.6h67.2L300.9,271.8z"/>
	<path fill="#FFD322" d="M540.4,171.4c0,32.7-8.8,58.2-26.4,76.5c-17.6,18.3-42.2,27.4-73.8,27.4c-30.3,0-54.5-9.3-72.4-28
		c-17.9-18.7-26.9-44-26.9-75.8c0-32.6,8.8-57.9,26.4-75.9c17.6-18,42.2-27.1,74-27.1c19.6,0,37,4.2,52,12.5
		c15,8.3,26.7,20.3,34.8,35.9C536.3,132.4,540.4,150.6,540.4,171.4z M411,171.4c0,17.2,2.3,30.2,6.9,39.2s12.3,13.5,23.1,13.5
		c10.7,0,18.3-4.5,22.7-13.5c4.4-9,6.6-22.1,6.6-39.2c0-17-2.2-29.9-6.7-38.6c-4.5-8.7-12.1-13.1-22.9-13.1
		c-10.6,0-18.2,4.3-22.8,13S411,154.3,411,171.4z"/>
	<path fill="#FFD322" d="M704.7,271.8l-8.6-24.9H692c-5.8,9.2-13.8,16.2-24.1,21.1c-10.3,4.9-22.4,7.3-36.2,7.3
		c-22,0-39.1-6.4-51.3-19.1c-12.2-12.8-18.3-30.8-18.3-54.1V71.9h69v109.2c0,13.1,1.9,22.9,5.6,29.6c3.7,6.7,9.8,10.1,18.3,10.1
		c11.9,0,20.3-4.7,25.4-14c5.1-9.3,7.6-25.1,7.6-47.4V71.9h69v199.8H704.7z"/>
	<path fill="#FFD322" d="M839.4,271.8L763.2,71.9h72L869,190.1c0.1,0.6,0.4,1.6,0.7,3c0.4,1.4,0.7,3.1,1.1,5c0.4,1.9,0.7,4,1,6.2
		c0.3,2.2,0.4,4.2,0.4,6.1h1.2c0-6.1,1.1-12.8,3.2-19.9l35.4-118.5h71.8l-76.2,199.8H839.4z"/>
	<path fill="#FFD322" d="M983.5,71.9h72.7l33.9,114.6c1.6,6,2.8,13.2,3.4,21.7h1.4c0.9-8.1,2.4-15.2,4.2-21.3l34.7-115h70.4
		l-79,212.5c-10.1,27-22.5,46.1-37.3,57.3c-14.8,11.2-34,16.8-57.8,16.8c-9.2,0-18.6-1-28.2-3v-54.1c6.2,1.4,13.3,2.1,21.3,2.1
		c6.1,0,11.5-1.2,16-3.5c4.6-2.4,8.6-5.7,12-10c3.4-4.3,7.1-11.3,10.9-21.1L983.5,71.9z"/>
</g>
<rect id="XMLID_5_" x="62.8" y="314.7" fill="#FFD322" width="553.6" height="46.5"/>
<rect id="XMLID_7_" x="643.8" fill="#FFD322" width="563.6" height="46.5"/>
</svg>
