<?xml version="1.0" standalone="no"?>
<!DOCTYPE svg PUBLIC "-//W3C//DTD SVG 1.1//EN" "http://www.w3.org/Graphics/SVG/1.1/DTD/svg11.dtd" >
<svg xmlns="http://www.w3.org/2000/svg">
<metadata>Generated by IcoMoon</metadata>
<defs>
<font id="icomoon" horiz-adv-x="1024">
<font-face units-per-em="1024" ascent="960" descent="-64" />
<missing-glyph horiz-adv-x="1024" />
<glyph unicode="&#x20;" horiz-adv-x="512" d="" />
<glyph unicode="&#xe900;" glyph-name="automatisation" d="M590.643 616.755c26.317 1.434 51.712 2.765 77.005 4.301 21.811 1.229 43.52 2.97 65.331 3.994 26.112 1.331 42.086-24.678 29.696-48.538-29.901-57.446-59.392-115.098-90.112-172.134-72.397-133.939-145.306-267.469-218.112-401.203-9.011-16.589-24.576-23.142-40.346-17.51-15.462 5.53-23.040 19.763-20.48 38.195 15.872 114.176 31.642 228.352 47.411 342.426 0.922 6.758 1.946 13.414 2.97 21.094-3.891 0-7.168 0-10.342 0-49.050 0-97.997 0-147.046 0-24.781 0-38.4 14.643-35.738 39.424 7.27 68.301 14.95 136.602 22.426 204.8 6.861 62.976 13.619 125.85 20.48 188.826 2.458 22.221 4.71 44.544 7.27 66.765 2.048 17.101 14.95 28.979 32.051 28.979 106.086 0.102 212.173 0.205 318.259 0 23.245 0 37.683-21.402 29.696-43.93-17.51-49.869-35.328-99.533-53.043-149.197-11.469-32.358-23.040-64.614-34.509-96.973-1.126-2.765-1.741-5.53-2.867-9.318zM681.165 557.568c-5.632-0.307-8.602-0.41-11.571-0.512-39.936-2.15-79.974-4.608-119.91-6.349-29.286-1.331-44.237 19.456-34.406 46.899 23.347 65.434 46.694 130.97 69.939 196.403 6.758 19.046 13.414 38.093 20.275 57.344-81.818 0-162.611 0-243.814 0-14.541-133.222-28.979-265.83-43.52-399.667 4.096 0 7.373 0 10.547 0 49.050 0 97.997 0 147.046 0 26.419 0 39.936-15.053 36.352-41.165-8.499-62.157-17.408-124.211-26.010-186.266-1.638-11.878-3.072-23.757-4.608-35.635 1.024-0.41 2.15-0.819 3.174-1.126 65.024 122.675 130.253 245.35 196.506 370.074z" />
<glyph unicode="&#xe901;" glyph-name="check" d="M1015.808 448.102c0-277.299-226.509-503.91-503.808-503.91s-503.808 226.406-503.808 503.808c0 277.709 226.816 504.115 504.627 503.808 276.787-0.307 502.989-226.714 502.989-503.706zM39.322 448.717c-0.307-260.506 211.046-472.678 471.552-473.293 260.813-0.614 473.395 211.149 473.805 471.962 0.307 260.403-211.149 472.678-471.552 473.293-261.018 0.512-473.395-211.149-473.805-471.962zM418.406 286.515c4.198 5.427 6.246 8.704 8.909 11.264 112.742 112.435 225.485 224.87 338.33 337.306 2.048 2.048 3.994 4.198 6.246 6.042 6.554 5.325 14.438 4.915 20.378-0.717 6.144-5.939 6.656-14.234 1.126-20.992-1.434-1.741-3.174-3.379-4.813-5.018-118.067-118.067-236.237-236.237-354.304-354.304-11.162-11.162-20.070-11.264-31.027-0.205-56.32 56.422-112.435 112.845-168.55 169.37-1.229 1.229-2.458 2.458-3.584 3.789-5.734 6.963-5.632 14.95 0.307 20.992 6.042 6.144 14.746 6.349 21.709 0.41 1.946-1.638 3.686-3.584 5.53-5.427 50.79-50.79 101.581-101.581 152.371-152.371 2.15-2.355 3.789-5.222 7.373-10.138z" />
<glyph unicode="&#xe902;" glyph-name="document" d="M118.682 447.181c0 142.643 0 285.389 0 428.032 0 40.141 10.24 50.381 50.381 50.483 108.339 0.205 216.678 1.024 325.018 0 12.288-0.102 27.443-7.066 36.25-15.872 115.814-114.79 230.502-230.81 346.522-345.6 19.763-19.558 28.058-39.219 27.75-67.686-1.536-158.515-0.717-317.030-0.819-475.648 0-42.189-10.24-52.224-53.043-52.224-226.611 0-453.12 0-679.731 0-42.803 0-52.326 9.626-52.326 52.429 0 142.029 0 284.058 0 426.086zM191.488 854.323c0-272.486 0-542.208 0-812.749 5.837-0.614 10.24-1.434 14.746-1.434 202.752-0.102 405.504 0.102 608.256-0.41 15.974 0 18.125 6.451 18.125 20.070-0.41 135.373-0.512 270.746 0.102 406.221 0.102 16.077-4.915 19.968-20.275 19.866-98.406-0.614-196.813-0.307-295.219-0.307-45.466 0-53.658 8.294-53.658 54.579 0 98.406-0.307 196.813 0.307 295.219 0.102 14.541-3.584 19.763-18.842 19.251-31.642-1.126-63.386-0.307-95.13-0.307-51.917 0-104.038 0-158.413 0zM772.403 557.875c-78.95 78.95-157.901 157.901-235.93 236.032 0-76.595 0-155.853 0-236.032 80.282 0 159.13 0 235.93 0z" />
<glyph unicode="&#xe903;" glyph-name="facebook" d="M511.386 907.059c-253.133 0-458.342-205.21-458.342-458.342s205.21-458.342 458.342-458.342c253.133 0 458.342 205.21 458.342 458.342s-205.21 458.342-458.342 458.342v0zM619.93 590.336h-68.915c-8.192 0-17.306-10.752-17.306-25.088v-49.766h86.118v-70.861h-86.118v-212.992h-81.306v212.992h-73.728v70.861h73.728v41.779c0 59.904 41.574 108.544 98.611 108.544h68.915v-75.469z" />
<glyph unicode="&#xe904;" glyph-name="home" d="M628.941 313.754c-77.824 0-154.214 0-231.936 0 0-3.379 0-6.554 0-9.728 0-76.186 0-152.371 0-228.557 0-17.613-6.861-24.474-24.576-24.474-86.426 0-172.851 0-259.277 0-16.998 0-24.166 7.168-24.166 24.166 0 163.738 0 327.475-0.102 491.11 0 9.318 3.379 16.179 10.342 22.221 132.403 116.122 264.602 232.448 396.8 348.774 12.698 11.162 21.197 11.162 34.099-0.102 132.198-116.326 264.397-232.653 396.698-348.877 6.963-6.144 10.24-13.005 10.24-22.323-0.102-163.738-0.102-327.475-0.102-491.11 0-16.794-7.27-23.962-24.371-23.962-86.426 0-172.851 0-259.277 0-17.51 0-24.371 6.963-24.371 24.678 0 75.878 0 151.859 0 227.738 0 3.277 0 6.451 0 10.445zM357.683 90.624c0 4.198 0 7.578 0 10.854 0 75.366 0 150.733 0 226.099 0 18.842 6.554 25.395 25.395 25.395 86.733 0 173.363 0 260.096 0 18.637 0 25.19-6.656 25.19-25.6 0-75.674 0-151.245 0-226.918 0-3.174 0-6.451 0-9.83 76.902 0 152.678 0 228.864 0 0.102 2.355 0.307 4.198 0.307 6.144 0 152.986 0 305.869-0.205 458.854 0 3.482-2.15 7.987-4.813 10.342-123.802 109.158-247.706 218.214-371.712 327.27-2.458 2.15-5.018 4.198-7.885 6.554-3.482-2.97-6.554-5.632-9.626-8.294-123.085-108.339-246.272-216.678-369.459-324.813-4.198-3.686-5.427-7.475-5.427-12.8 0.102-151.552 0.102-303.104 0.102-454.656 0-2.662 0-5.325 0-8.499 76.595-0.102 152.371-0.102 229.171-0.102z" />
<glyph unicode="&#xe905;" glyph-name="mail" d="M911.77 847.77h-799.539c-54.989 0-99.43-44.954-99.43-99.942l-0.512-599.654c0-54.989 44.954-99.942 99.942-99.942h799.539c54.989 0 99.942 44.954 99.942 99.942v599.654c0 54.989-44.954 99.942-99.942 99.942zM911.77 647.885l-399.77-249.856-399.77 249.856v99.942l399.77-249.856 399.77 249.856v-99.942z" />
<glyph unicode="&#xe906;" glyph-name="message" d="M736.973 188.314c0-4.71 0-8.090 0-11.469 0-43.725-0.205-87.45 0.102-131.174 0.102-16.077-6.144-27.75-20.685-34.611-14.234-6.656-26.624-2.56-37.99 7.168-30.208 25.702-60.518 51.302-90.726 77.005-34.509 29.286-68.915 58.778-103.731 87.757-3.891 3.174-9.933 5.222-14.95 5.222-105.574 0.307-211.149 0.102-316.723 0.205-70.554 0.102-125.85 46.49-137.83 115.712-1.229 7.373-1.434 14.95-1.434 22.426-0.102 141.824-0.205 283.648 0 425.472 0.102 69.427 45.773 123.904 113.971 136.397 8.192 1.536 16.794 1.843 25.19 1.843 239.923 0.102 479.744 0.205 719.667 0 70.963 0 125.85-46.285 137.933-115.712 1.126-6.451 1.434-13.005 1.434-19.558 0.102-143.667 0.41-287.334-0.102-431.104-0.205-65.331-44.544-118.886-108.237-132.608-9.626-2.048-19.763-2.765-29.696-2.867-41.574-0.307-83.046-0.102-124.621-0.102-3.584 0-6.963 0-11.571 0zM668.877 114.893c0 5.632 0 8.602 0 11.674 0 30.003 0 60.006 0 90.010 0 27.034 12.493 39.731 39.322 39.731 54.067 0 108.134-0.102 162.099 0.102 7.373 0 15.155 0.512 22.221 2.662 37.581 11.162 51.917 39.629 52.019 75.469 0.717 138.035 0.307 276.173 0.307 414.31 0 44.749-28.467 73.318-73.011 73.318-239.002 0-478.003 0-717.005 0-45.978 0-74.035-28.16-74.035-74.138 0-139.059 0-278.016 0-417.075 0-46.387 28.262-74.547 74.752-74.547 109.363 0 218.726-0.102 327.987 0.205 12.698 0 22.938-3.686 32.358-11.878 22.426-19.456 45.158-38.502 67.789-57.651 27.853-23.552 55.398-46.899 85.197-72.192z" />
<glyph unicode="&#xe907;" glyph-name="password" d="M1007.616-43.52c-78.029 6.451-154.624 12.8-232.448 19.354 0 38.605 0 76.902 0 116.122-39.219 0-77.107 0-116.429 0 0 39.117 0 77.414 0 116.941-20.275 0-39.219-0.102-58.163 0-19.763 0.102-41.677-4.608-58.675 2.355-16.589 6.861-28.262 25.805-41.984 39.526-33.997 33.894-67.994 67.789-101.786 101.99-4.915 5.018-9.318 6.144-15.974 4.506-163.84-41.165-321.946 58.368-356.045 223.846-32.666 158.72 80.896 318.464 241.459 339.558 158.925 20.992 299.725-82.432 326.042-239.821 6.554-39.117 4.813-78.234-5.632-116.634-2.15-7.782-0.922-12.8 5.12-18.842 132.506-132.096 264.806-264.397 396.902-396.902 3.789-3.789 7.885-9.216 8.192-14.029 3.482-58.573 6.349-117.043 9.421-177.971zM231.117 781.722c-37.786-0.102-68.403-30.822-68.403-68.403 0-37.478 30.925-68.403 68.506-68.506 38.298-0.205 68.813 30.618 68.608 69.12-0.307 37.99-30.618 67.891-68.71 67.789z" />
<glyph unicode="&#xe908;" glyph-name="phone" d="M312.832 580.813c51.2-95.13 225.997-270.029 326.656-326.861 3.072 2.97 6.451 6.042 9.626 9.216 27.341 27.238 54.477 54.682 82.125 81.613 2.97 2.867 9.83 4.915 13.517 3.482 82.125-30.31 163.942-61.338 245.965-91.853 6.758-2.56 8.499-5.939 8.602-12.8 2.355-145.818-104.653-266.854-250.061-283.034-62.976-6.963-122.061 5.018-176.538 36.864-216.883 127.283-389.325 299.213-516.198 516.403-92.467 158.208-13.824 363.418 159.027 414.31 28.058 8.294 58.573 8.294 87.962 12.186 6.554 0.922 9.318-2.048 11.674-8.192 30.515-82.022 61.338-163.942 92.365-245.76 2.662-6.963 0.102-10.547-4.403-14.95-27.443-27.136-54.682-54.477-81.92-81.818-2.97-2.867-5.734-6.042-8.397-8.806z" />
<glyph unicode="&#xe909;" glyph-name="plus" d="M422.707 339.866h-249.856v180.019h249.958v246.579h180.736v-246.579h249.958v-180.019h-250.061v-242.586h-180.736v242.586z" />
<glyph unicode="&#xe90a;" glyph-name="salle" d="M789.197 87.654c13.414 0 25.702 0 37.99 0 51.098 0 102.298 0 153.395 0 19.866 0 30.925-12.493 28.774-31.949-1.536-14.336-11.674-23.347-27.136-23.45-30.822-0.102-61.645 0-92.365-0.102-41.267 0-82.534 0-123.802 0-21.811 0-32.256 10.342-32.256 32.154 0 243.61 0 487.322 0 730.931 0 3.994 0 7.885 0 12.493-113.766 0-227.021 0-340.173 0-0.102-0.307-0.205-0.512-0.307-0.819 18.432-4.403 36.966-8.806 55.398-13.107 59.29-13.824 118.682-27.443 177.971-41.267 16.589-3.891 23.859-12.902 23.859-30.106 0-197.12 0-394.24 0-591.36 0-17.715-8.192-27.443-25.395-30.72-117.555-22.426-235.008-44.954-352.563-67.277-2.97-0.614-6.144-0.819-9.114-0.819-73.626 0-147.251-0.102-220.877 0-18.432 0-29.286 11.674-28.16 29.901 0.819 15.462 11.162 25.395 27.136 25.395 40.653 0.102 81.306 0.102 121.958 0.102 23.347 0 46.694 0 71.27 0 0 4.506 0 8.397 0 12.186 0 242.995 0 486.093 0 729.088 0 25.6 9.421 34.918 35.123 34.918 161.69 0 323.379 0 485.171 0 24.474 0 34.202-9.728 34.202-33.997 0-242.995 0-486.093 0-729.088-0.102-3.994-0.102-7.885-0.102-13.107zM290.816 773.837c0-227.328 0-453.734 0-680.55 101.786 19.661 202.854 39.117 304.026 58.675 0 184.115 0 367.309 0 551.219-101.171 23.45-202.342 47.002-304.026 70.656zM540.16 364.851c-15.155-0.205-27.75 11.981-28.058 27.034-0.307 15.258 11.674 27.853 26.829 28.365 15.565 0.41 28.467-11.981 28.57-27.546 0-15.053-12.288-27.648-27.341-27.853z" />
<glyph unicode="&#xe90b;" glyph-name="tache" d="M122.778 835.686c90.112 0 179.712 0 269.517 0 5.222 21.606 14.131 40.96 29.082 56.934 31.846 34.099 71.168 47.514 116.531 37.581 46.182-10.138 76.595-39.424 90.726-84.582 2.253-7.168 4.915-9.523 12.493-9.523 82.534 0.102 164.966-0.205 247.501-0.41 3.891 0 7.782 0 12.493 0 0-292.147 0-583.987 0-876.544-258.97 0-518.246 0-778.342 0 0 291.533 0 583.373 0 876.544zM220.058 56.525c195.174 0 389.53 0 583.68 0 0 227.533 0 454.349 0 681.267-48.742 0-96.768 0-144.691 0-6.451-34.714-22.938-48.333-58.368-48.333-59.494 0-118.886 0-178.381 0-34.406 0-51.405 14.131-57.344 48.23-48.128 0-96.358 0-144.998 0 0.102-227.226 0.102-453.837 0.102-681.165zM536.269 811.213c0 13.312-10.65 24.166-23.962 24.371-13.312 0.102-24.166-10.445-24.474-23.859-0.307-13.722 10.752-24.986 24.474-24.883 13.21 0.205 23.962 11.059 23.962 24.371zM319.898 348.467c21.811 21.914 44.237 44.442 66.458 66.765 24.678-24.678 49.971-49.869 74.957-74.854 58.675 58.675 116.531 116.326 173.568 173.363 24.371-24.064 47.104-46.49 69.222-68.403-80.179-80.179-160.768-160.768-240.538-240.538-47.411 47.411-95.539 95.539-143.667 143.667z" />
<glyph unicode="&#xe90c;" glyph-name="twitter" d="M511.795 941.875c-272.179 0-493.67-221.491-493.67-493.67 0-272.282 221.491-493.773 493.67-493.773 272.282 0 493.773 221.491 493.773 493.773 0 272.179-221.491 493.67-493.773 493.67v0zM732.16 561.152c0.205-4.813 0.307-9.83 0.307-14.746 0-150.118-114.278-323.174-323.277-323.174-64.205 0-123.904 18.739-174.182 51.098 8.909-1.024 17.92-1.638 27.136-1.638 53.248 0 102.195 18.125 141.21 48.64-49.766 0.922-91.648 33.792-106.086 78.95 6.861-1.331 13.926-2.048 21.402-2.048 10.342 0 20.378 1.331 29.901 3.994-51.917 10.342-91.136 56.32-91.136 111.411 0 0.512 0 0.922 0.102 1.434 15.258-8.602 32.87-13.619 51.507-14.131-30.515 20.275-50.586 55.091-50.586 94.515 0 20.787 5.632 40.243 15.36 57.139 56.013-68.71 139.776-113.971 234.189-118.784-1.946 8.397-2.867 16.998-2.867 25.907 0 62.669 50.893 113.562 113.664 113.562 32.666 0 62.259-13.824 82.944-35.84 25.907 5.018 50.278 14.438 72.294 27.546-8.602-26.624-26.522-48.845-49.971-62.874 23.040 2.662 44.954 8.806 65.229 17.818-15.667-22.835-35.021-42.803-57.139-58.778v0z" />
<glyph unicode="&#xe90d;" glyph-name="vote" d="M118.579 385.229c0 89.498 0 178.893 0 268.39 0 44.339 24.371 70.554 64.922 70.349 80.589-0.307 161.178-0.512 241.664-0.512 38.605 0 77.312 0.205 115.917 1.126 28.877 0.614 62.771-26.010 65.741-52.838 2.867-26.214-25.6-60.723-54.989-64-18.227-2.048-36.966 0-55.501 0.102-73.318 0.205-146.739 0.512-220.058 0.512-34.099 0-44.646-11.162-44.646-44.954 0.102-120.115 0-240.23-0.102-360.243 0-31.027 10.445-42.701 41.779-42.803 120.934-0.41 241.766-0.307 362.701-0.41 26.214 0 40.755 17.613 53.76 36.147 13.619 19.456 28.672 36.659 54.579 31.642 22.221-4.301 48.128-42.701 48.333-66.662 0.102-15.258 0-30.618 0.205-45.875 0.512-44.851-30.618-71.782-75.571-70.451-74.854 2.253-149.811 1.843-224.768 2.048-92.672 0.307-185.344 0.205-278.118 0.205-8.090 0-16.179-0.205-24.166-1.024-42.906-4.403-71.782 22.118-71.885 66.15 0 91.034 0 182.17 0 273.203 0.102-0.102 0.205-0.102 0.205-0.102zM918.118 722.534c-2.355-5.12-5.632-16.077-11.776-25.088-88.678-130.458-177.459-260.71-266.957-390.349-10.342-14.95-23.859-29.184-39.219-38.502-9.523-5.837-27.648-6.758-37.581-1.536-33.997 18.022-67.584 37.581-98.304 60.518-40.448 30.003-89.19 48.742-120.627 91.341-13.824 18.739-18.432 34.099-2.253 53.658 29.184 35.533 44.954 44.954 69.427 30.618 38.605-22.835 76.595-47.206 112.23-74.342 29.798-22.733 47.104-20.173 67.789 11.878 56.013 86.63 116.736 170.291 173.568 256.41 0 0.102 0.102 0.102 0.102 0.205 19.763 22.426 34.918 49.152 54.374 72.090 13.312 15.667 28.262 30.003 51.712 21.811 21.197-7.68 47.718-43.213 47.514-68.71z" />
<glyph unicode="&#xe90e;" glyph-name="texte" d="M460.8 341.606c0 125.645 0 248.422 0 372.429-36.454 0-71.578 0-109.466 0 0-9.421 0.512-18.227-0.102-26.931-1.843-26.829-20.685-45.056-46.080-44.851s-44.339 18.637-45.261 45.568c-0.819 23.859-0.717 47.718 0 71.578 0.819 27.853 18.944 46.080 46.592 46.182 133.427 0.307 266.854 0.307 400.282 0 27.648-0.102 45.978-18.125 47.002-45.773 0.819-23.859 0.819-47.718 0-71.578-0.922-27.034-19.661-45.568-44.954-45.978-26.214-0.307-45.158 18.432-46.49 46.387-0.41 8.192-0.102 16.384-0.102 25.498-36.864 0-71.475 0-107.418 0 0-123.904 0-247.091 0-372.531 15.155 0 29.798 0.307 44.442-0.102 26.317-0.819 45.978-20.173 46.080-44.954 0.102-24.883-19.046-44.954-45.67-45.261-61.235-0.614-122.47-0.614-183.706 0-26.931 0.307-45.056 19.763-44.954 45.363 0.205 25.6 18.739 44.032 45.67 44.749 13.926 0.512 28.058 0.205 44.134 0.205zM506.778 77.722c-59.29 0-118.477-0.102-177.766 0-31.744 0.102-51.302 17.203-51.61 44.646-0.307 27.648 19.046 45.875 50.381 45.875 119.091 0.205 238.285 0.205 357.376 0 31.334-0.102 50.893-18.125 50.688-45.67-0.205-27.648-19.661-44.851-51.405-44.954-59.187 0-118.374 0.102-177.664 0.102z" />
<glyph unicode="&#xe90f;" glyph-name="membre" d="M702.362 288.051c11.366-7.27 22.426-15.258 33.28-23.962 9.011-7.27 17.203-15.667 26.317-22.938 1.331-1.024 2.662-2.048 3.994-2.867-19.251 19.046-40.653 35.635-63.59 49.766zM857.395 256c-40.55 51.507-89.6 91.443-147.046 120.115-15.667 7.987-31.744 15.053-48.23 21.094 7.68 8.602 14.746 16.794 22.221 24.678 52.224 56.32 79.77 123.392 85.299 199.475 6.758 94.106-18.227 178.688-81.613 249.856-94.925 106.598-246.477 110.387-347.136 9.216-53.965-54.272-82.637-120.73-89.6-196.198-9.011-97.178 15.667-184.32 81.203-258.355 8.602-9.728 17.408-19.149 26.010-28.467-0.819-0.307-2.765-1.331-4.813-2.048-75.366-28.979-138.342-74.957-188.314-138.342-62.566-79.462-94.618-170.086-94.515-271.462 0-9.011 4.198-19.149 9.318-26.829 8.397-12.39 22.323-14.746 36.762-14.746 113.971 0.102 227.942 0.102 341.914 0.102 0.205 0 0.41-0.102 0.512-0.102 4.301-0.717 8.704-0.819 13.005-0.819 144.384 0 288.768 0 433.152-0.102 14.438 0 28.467 2.355 36.762 14.746 5.12 7.68 9.318 17.818 9.318 26.829 0.41 101.274-31.642 191.898-94.208 271.36zM329.626 646.554c1.024 65.946 18.534 123.29 61.645 170.803 69.939 76.8 175.923 74.547 242.483-5.222 45.466-54.477 61.44-118.477 55.603-188.211-3.994-48.435-19.763-92.979-50.074-131.482-28.467-36.147-64.307-61.030-111.002-66.765-50.79-6.349-93.798 11.469-129.434 46.899-48.947 48.435-68.096 109.158-69.222 173.978zM563.814 23.45c-3.277 0.614-6.861 0.922-10.445 0.922h-400.179c0.819 6.656 1.434 11.981 2.253 17.306 37.478 233.984 282.931 358.195 486.605 277.402 0.102 0 0.102-0.102 0.205-0.102 20.48-8.192 40.55-18.432 60.006-30.822 0.102 0 0.102-0.102 0.102-0.102 22.835-14.131 44.237-30.72 63.59-49.766 51.405-50.483 88.576-117.658 101.376-197.53 0.819-5.325 1.434-10.65 2.253-17.306h-305.766zM702.259 288.154c-19.251 11.878-39.629 21.914-60.621 30.003l0.614 0.717c20.48-8.090 40.55-18.33 60.006-30.72z" />
<glyph unicode="&#xe910;" glyph-name="dashboard" d="M924.467 469.811c0-131.482 0-259.891 0-388.198 0-41.472-9.421-50.893-50.893-50.893-74.445 0-148.89 0-223.334 0-39.322 0-49.254 9.728-49.254 48.333 0 46.182 0.717 92.467-0.307 138.65-1.024 47.411-37.888 86.118-83.968 90.112-46.182 3.994-87.552-25.907-98.304-71.578-2.048-8.602-2.253-17.818-2.253-26.726-0.205-46.182 0.102-92.467-0.205-138.65-0.205-27.034-13.312-40.038-40.448-40.038-80.896-0.205-161.792-0.205-242.586 0-28.16 0.102-40.346 12.8-40.346 41.779-0.102 124.518 0 249.037 0 373.555 0 6.963 0 13.926 0 23.757-11.674 0-22.323-0.307-32.973 0.102-22.63 0.819-35.84 13.619-36.25 36.147-0.512 26.931-1.946 54.067 0.717 80.794 1.126 11.674 8.806 26.829 18.33 32.768 148.070 92.979 297.165 184.832 446.054 276.992 15.565 9.626 30.106 6.758 44.954-2.56 91.238-57.242 182.682-114.176 274.227-171.11 53.862-33.587 107.725-67.174 162.099-99.942 16.589-10.035 24.883-22.733 24.166-42.291-0.819-21.811-0.102-43.622-0.205-65.434-0.102-33.69-11.674-45.466-44.749-45.568-7.475 0-14.95 0-24.474 0zM922.317 539.136c6.246 20.89-0.41 31.949-17.306 42.394-125.030 76.902-249.651 154.522-373.76 233.165-16.998 10.752-28.262 11.264-45.466 0.41-124.006-78.541-248.627-156.262-373.76-233.165-17.613-10.854-23.757-22.426-17.51-42.803 5.734 0 11.469 0 17.101 0 40.346-0.205 49.971-9.83 49.971-49.869 0-122.573 0-245.146 0-367.718 0-6.758 0-13.619 0-19.968 63.078 0 123.597 0 185.037 0 0 41.37-0.717 81.101 0.102 120.832 1.741 81.818 70.758 151.347 152.576 154.829 93.901 3.891 169.677-67.891 170.701-162.202 0.41-37.683 0.102-75.366 0.102-113.766 62.362 0 122.88 0 184.934 0 0 8.090 0 15.053 0 22.016 0 125.133-0.102 250.266 0.102 375.398 0 27.546 12.595 40.038 39.731 40.448 8.909 0.102 17.818 0 27.443 0z" />
<glyph unicode="&#xe911;" glyph-name="lien" d="M658.022 880.128c12.8-2.253 25.805-3.891 38.4-6.758 97.792-22.118 174.080-103.834 188.621-203.162 12.288-83.763-11.571-156.365-71.066-216.678-58.266-58.982-117.146-117.35-175.821-175.923-51.098-51.098-102.195-102.298-153.395-153.395-37.069-36.966-81.92-55.501-134.246-55.091-89.805 0.717-167.219 68.608-179.302 157.594-8.192 60.518 9.011 113.459 52.122 156.774 104.653 105.267 209.51 210.33 314.982 314.88 36.25 36.045 80.589 46.285 128.922 29.901 48.026-16.384 76.288-51.712 83.456-101.888 5.53-38.605-5.734-73.216-32.563-101.888-15.053-16.077-31.027-31.334-46.694-47.002-65.434-65.434-130.97-130.867-196.403-196.403-9.011-9.011-19.354-13.824-32.154-12.083-13.926 1.843-23.757 9.523-28.979 22.323-5.12 12.595-3.277 24.781 5.018 35.738 2.048 2.662 4.506 5.018 6.963 7.373 78.848 78.848 157.696 157.696 236.544 236.544 19.558 19.558 22.733 46.694 8.397 68.403-17.408 26.214-55.91 31.027-79.462 9.933-1.126-1.024-2.253-2.15-3.379-3.277-104.55-104.755-209.101-209.203-313.446-313.754-39.014-39.014-43.827-99.84-12.083-144.077 39.219-54.682 117.35-62.464 166.912-16.794 1.843 1.638 3.584 3.379 5.325 5.222 109.158 109.158 218.214 218.214 327.373 327.373 36.659 36.557 54.886 80.794 53.76 132.506-1.843 85.914-67.891 159.13-152.883 169.472-58.573 7.168-108.954-10.445-150.63-52.019-104.243-104.243-208.384-208.384-312.422-312.627-10.547-10.547-22.63-15.462-37.274-11.571-25.805 6.861-35.43 37.888-18.227 58.266 1.741 2.048 3.686 3.891 5.632 5.837 102.912 103.117 206.131 206.029 308.941 309.35 41.677 41.882 91.136 67.379 149.709 75.162 4.301 0.614 8.499 1.229 12.8 1.843 12.186-0.102 24.371-0.102 36.557-0.102z" />
<glyph unicode="&#xe912;" glyph-name="compte-rendu" d="M681.267 603.443c4.301 0 7.68 0 11.059 0 69.939 0 139.776 0 209.715 0 16.282 0 26.522-5.734 31.13-17.715 5.12-13.517 0.205-24.166-9.523-33.792-129.536-129.536-258.97-258.97-388.403-388.403-15.667-15.667-30.822-15.667-46.49 0-129.536 129.434-258.97 258.867-388.506 388.301-9.728 9.728-14.643 20.275-9.421 33.792 4.608 12.083 14.848 17.715 31.13 17.715 69.939 0 139.776 0 209.715 0 3.379 0 6.758 0 11.059 0 0 4.506 0 8.192 0 11.878 0 97.792 0 195.584 0 293.478 0 22.733 10.547 33.28 33.382 33.28 90.624 0 181.248 0 271.77 0 22.835 0 33.382-10.547 33.382-33.28 0-97.792 0-195.584 0-293.478 0-3.584 0-7.27 0-11.776zM399.155 885.146c0-4.403 0-8.090 0-11.776 0-97.792 0-195.584 0-293.376 0-22.118-10.752-32.87-32.768-32.973-56.422 0-112.845 0-169.267 0-3.277 0-6.451 0-7.987 0 108.032-108.134 216.269-216.371 323.379-323.584 107.11 107.11 215.142 215.142 323.584 323.584-2.97 0-6.246 0-9.523 0-56.115 0-112.23 0-168.346 0-22.733 0-33.382 10.547-33.382 33.28 0 97.792 0 195.584 0 293.376 0 3.686 0 7.373 0 11.469-75.366 0-149.914 0-225.69 0zM512.102 85.094c-157.696 0-315.29 0-472.986 0-24.883 0-35.021 3.379-35.021 11.674 0 11.674 0 23.347 0 35.021 0 6.861 11.264 10.547 31.539 10.65 317.542 0 635.085 0 952.525 0 20.685 0 31.642-3.789 31.744-10.854 0-11.878 0-23.757 0-35.635 0-7.066-11.162-10.752-31.949-10.752-158.72-0.102-317.235-0.102-475.853-0.102zM963.072 122.982c-301.466 0-601.805 0-902.042 0 0-6.349 0-12.493 0-18.637 300.954 0 601.293 0 902.042 0 0 6.349 0 12.39 0 18.637zM43.725 131.891h943.514v-33.997h-943.514v33.997z" />
<glyph unicode="&#xe913;" glyph-name="image_responsive" d="M512 846.222c142.222 0 284.444 0 426.667 0 51.769 0 85.333-33.754 85.333-85.333 0-208.593 0-417.185 0-625.588 0-51.579-33.754-85.333-85.333-85.333-284.444 0-568.699 0-853.144 0-51.769 0-85.333 33.754-85.333 85.333-0.19 208.024-0.19 416.237-0.19 624.64 0 52.907 33.375 86.281 86.281 86.281 142.033 0 283.876 0 425.719 0zM955.164 565.95c0.19 1.707 0.569 3.224 0.569 4.741 0 64.474 0 128.948 0 193.422 0 10.809-3.603 13.843-15.55 13.843-285.393 0-570.596 0-855.988 0-13.084 0-15.929-2.844-15.929-16.308 0-138.619 0-277.428 0-416.047 0-2.655 0.379-5.31 0.759-8.913 4.361 3.224 7.396 5.689 10.809 7.964 35.271 23.893 69.594 49.304 106.003 71.49 53.096 32.237 111.502 46.27 173.89 42.856 52.148-2.844 101.262-17.446 148.29-38.874 6.068-2.844 11.567-3.034 18.015-1.138 43.615 13.084 82.868 35.271 121.742 58.216 31.479 18.584 62.578 37.926 95.194 54.803 66.56 34.513 136.533 51.959 212.196 33.944zM955.354 288.711c-1.138 0-1.896 0.19-2.465 0-2.086-0.759-4.172-1.517-6.258-2.276-77.179-32.616-156.444-40.012-238.364-22.566-52.717 11.188-101.262 32.616-149.428 55.941-34.892 17.067-69.594 34.323-105.434 49.114-49.873 20.48-102.21 27.876-155.876 18.584-36.409-6.258-69.215-22.187-99.176-42.856-42.667-29.393-83.816-60.681-125.345-91.591-2.844-2.086-4.551-7.396-4.551-11.188-0.379-35.65-0.19-71.49-0.19-107.141 0-13.843 2.655-16.687 16.498-16.687 284.634 0 569.458 0 854.092 0 14.033 0 16.687 2.655 16.687 16.498 0 48.735 0 97.28 0 146.015 0.19 2.655 0 5.31-0.19 8.154zM603.97 373.096c17.067-7.396 34.702-15.55 52.717-22.756 98.607-39.064 195.698-37.167 291.081 10.999 5.689 2.844 8.154 6.068 7.964 12.895-0.379 37.167-0.379 74.524 0 111.881 0 6.447-1.896 9.292-8.154 11.378-28.065 9.292-56.51 9.292-85.144 4.741-43.236-6.827-81.541-25.6-118.898-47.218-46.080-27.117-92.35-54.234-139.567-81.92zM489.055 709.689c62.578 0 113.967-51.39 113.967-114.157-0.19-62.009-51.579-113.399-113.588-113.399-62.578 0-113.967 51.39-113.967 114.157 0.19 62.199 51.39 113.399 113.588 113.399zM534.756 595.532c0.19 25.6-19.721 45.89-45.321 45.89-25.221 0-45.321-19.532-45.701-44.563-0.379-25.6 19.342-46.080 44.753-46.459 25.6-0.379 46.080 19.721 46.27 45.132z" />
<glyph unicode="&#xe914;" glyph-name="mail_rounded" d="M988.262 444.211c0.307-263.475-214.938-479.027-478.925-479.539-264.397-0.512-479.437 213.811-479.744 478.106-0.205 264.090 214.938 480.358 478.003 480.358 264.806 0 480.358-214.733 480.666-478.925zM855.347 673.075c-88.166 122.266-205.517 188.518-356.352 184.832-142.541-3.482-253.645-69.12-336.077-185.344 116.019-105.37 230.707-209.613 345.907-314.368 115.712 104.96 230.605 209.51 346.522 314.88zM368.333 402.227c-68.915-62.566-137.114-124.518-205.21-186.266 64-100.659 192-191.795 356.045-186.368 142.643 4.71 253.338 69.734 336.077 185.651-69.427 63.078-137.523 124.928-205.824 186.982-38.912-35.328-76.698-69.632-114.586-103.936-19.046-17.306-32.973-17.306-52.019 0-37.786 34.304-75.674 68.608-114.483 103.936zM131.994 617.165c-50.278-116.224-50.483-230.605-0.41-346.624 64.307 58.47 127.283 115.61 190.874 173.363-63.386 57.754-126.054 114.688-190.464 173.261zM885.76 270.746c50.381 116.019 50.483 230.4 0.205 346.419-64.205-58.266-127.078-115.405-190.669-173.261 63.59-57.856 126.464-114.995 190.464-173.158z" />
<glyph unicode="&#xe915;" glyph-name="security" d="M505.754 928.256c268.39 0.205 487.219-217.6 487.424-485.069 0.102-271.565-216.883-489.779-487.219-489.779-268.493 0-487.117 217.6-487.424 485.171-0.307 271.565 216.576 489.472 487.219 489.677zM505.856 18.944c233.165 0 420.454 187.904 421.581 422.912 1.126 230.502-188.928 420.659-420.762 420.966-234.086 0.307-423.322-189.645-422.502-423.834 0.922-232.038 189.747-420.147 421.683-420.045zM673.69 595.968c22.426 0 44.032 0 65.638 0 24.678 0 37.478-12.595 37.478-36.966 0-110.694 0-221.389 0-332.083 0-23.654-13.107-36.659-36.966-36.659-156.16 0-312.218 0-468.378 0-23.347 0-36.557 13.107-36.557 36.25 0 111.002 0 222.003 0 333.005 0 23.757 13.005 36.454 37.069 36.454 21.914 0 43.827 0 65.741 0-3.994 98.509 81.818 176.435 175.002 171.827 85.914-4.198 162.406-74.138 160.973-171.827zM710.861 529.408c-137.011 0-273.51 0-409.907 0 0-91.238 0-181.658 0-272.589 136.806 0 273.101 0 409.907 0 0 90.931 0 181.248 0 272.589zM404.582 596.582c68.198 0 135.066 0 202.65 0 0.614 39.117-14.336 69.837-47.002 90.112-35.635 22.118-72.806 21.299-108.339-0.307-32.973-19.968-48.026-50.586-47.309-89.805zM473.088 404.685c0 11.981-0.205 24.064 0 36.045 0.307 18.739 14.131 32.666 32.358 32.768 18.637 0.102 32.768-13.824 32.973-32.973 0.205-24.371 0.205-48.64 0-73.011-0.205-18.637-14.336-32.768-32.358-32.973-18.33-0.205-32.666 14.131-32.973 33.28-0.102 12.288 0 24.576 0 36.864z" />
<glyph unicode="&#xe916;" glyph-name="parameters" d="M509.952 952.832c22.118-1.843 44.134-3.072 65.946-5.632 28.467-3.277 49.050-27.034 49.357-55.91 0.102-12.083 0.205-24.064 0-36.147-0.102-4.403 1.434-6.144 5.734-7.782 25.293-9.933 50.278-20.48 75.469-30.515 2.355-0.922 6.656-0.307 8.499 1.331 8.704 7.885 16.691 16.486 25.088 24.678 21.914 21.299 53.248 23.245 77.414 4.403 33.894-26.317 64.205-56.32 90.419-90.214 19.763-25.6 17.818-56.525-4.915-79.36-7.68-7.782-15.258-15.565-23.142-23.040-3.277-3.174-4.096-5.632-2.15-10.24 10.65-24.986 20.685-50.176 31.334-75.162 1.024-2.355 4.608-4.813 7.168-4.915 12.288-0.512 24.678-0.102 36.966-0.307 28.57-0.41 52.019-21.504 55.398-50.074 5.222-43.418 5.222-86.835 0.102-130.355-3.379-28.877-26.829-50.074-55.91-50.483-11.776-0.205-23.552-0.205-35.226 0.102-5.018 0.102-7.168-1.331-9.114-6.349-9.728-24.986-19.968-49.869-30.515-74.445-1.843-4.301-1.331-6.554 1.843-9.523 8.294-7.885 16.384-16.077 24.371-24.269 21.402-22.016 23.347-53.35 4.71-77.414-26.419-34.099-56.627-64.614-90.829-91.034-24.986-19.251-56.115-17.203-78.643 5.12-7.885 7.885-15.974 15.667-23.654 23.757-3.072 3.277-5.427 3.482-9.626 1.638-24.986-10.65-50.176-20.685-75.162-31.334-2.355-1.024-5.018-4.506-5.12-6.963-0.512-12.288-0.102-24.678-0.307-36.966-0.41-28.365-20.89-51.814-49.050-55.398-44.237-5.632-88.576-5.632-132.915 0-28.16 3.584-48.538 27.136-48.947 55.501-0.205 12.083-0.205 24.064 0.102 36.147 0.102 4.813-1.638 6.554-6.246 8.397-24.986 9.83-49.766 19.968-74.547 30.515-4.198 1.741-6.451 1.638-9.523-1.638-7.885-8.294-16.077-16.384-24.269-24.371-22.221-21.709-53.555-23.552-78.131-4.403-33.69 26.112-63.693 55.91-89.805 89.6-20.173 26.010-18.125 56.73 5.018 79.974 7.475 7.475 14.848 15.155 22.528 22.426 3.584 3.379 4.301 6.042 2.15 10.957-10.65 24.678-20.787 49.562-30.618 74.547-1.741 4.403-3.789 5.53-8.090 5.427-12.083-0.205-24.064-0.205-36.147 0-29.082 0.614-52.326 21.811-55.706 50.79-5.12 43.11-5.222 86.323 0 129.434 3.482 29.491 26.624 50.483 56.422 50.79 11.469 0.102 22.938 0.307 34.406-0.102 5.325-0.205 7.578 1.434 9.626 6.861 9.523 24.781 19.866 49.254 30.208 73.728 1.741 3.994 2.048 6.451-1.331 9.626-8.090 7.68-15.974 15.667-23.757 23.654-22.63 23.040-24.474 53.965-4.71 79.36 25.805 33.178 55.194 62.874 88.371 88.678 26.829 20.89 57.344 19.046 81.306-4.813 7.68-7.68 15.155-15.667 23.245-22.938 1.843-1.638 6.144-2.355 8.602-1.434 25.498 10.138 50.893 20.48 76.083 31.232 2.253 0.922 4.506 4.813 4.608 7.373 0.512 11.981 0.102 24.064 0.205 36.147 0.307 28.877 20.992 52.531 49.459 55.808 21.914 2.458 43.93 3.686 65.946 5.53zM928.973 484.864c-13.005 0-25.19 0-37.478 0-28.57 0.102-49.664 16.589-56.73 44.339-8.090 31.846-19.968 62.054-36.659 90.317-18.432 31.13-15.462 54.579 10.342 80.179 7.475 7.373 15.258 14.438 23.040 21.709-17.613 17.715-33.69 33.894-50.483 50.893-9.011-9.421-17.101-17.92-25.395-26.214-21.606-21.504-47.411-24.781-73.523-9.114-28.467 17.101-58.778 29.594-90.726 37.888-32.563 8.499-47.206 27.546-47.206 61.235 0 11.059 0 22.118 0 33.997-23.962 0-46.694 0-70.246 0 0-12.902 0-24.576 0-36.25 0-31.949-15.974-52.326-46.797-60.109-31.539-7.885-61.44-20.173-89.395-36.762-28.672-17.101-53.453-14.131-76.902 9.421-7.987 8.090-15.667 16.384-24.166 25.293-17.613-17.408-33.894-33.485-50.893-50.381 9.114-8.806 17.101-16.282 24.781-23.962 24.166-24.166 27.341-48.128 10.138-77.517-16.384-28.058-28.774-57.856-36.966-89.293-8.192-31.642-28.058-46.899-60.826-47.002-11.059 0-22.221 0-33.894 0 0-23.757 0-46.49 0-69.939 13.722 0 26.624 0.102 39.424 0 28.774-0.41 49.562-16.691 56.627-44.544 8.499-33.178 21.094-64.614 38.912-94.003 15.36-25.293 11.981-51.712-9.011-72.806-8.499-8.499-17.203-16.691-26.624-25.702 17.101-17.306 33.28-33.69 49.869-50.483 9.011 9.114 16.794 17.101 24.678 24.986 23.245 23.245 47.718 26.419 76.186 9.83 28.365-16.589 58.266-29.286 90.112-37.274 31.027-7.782 46.592-27.955 46.592-60.109 0-11.366 0-22.733 0-35.021 23.962 0 46.797 0 70.349 0 0 12.493 0 23.859 0 35.328 0 31.949 15.77 52.019 46.899 59.904 31.232 7.885 60.826 19.968 88.576 36.454 29.798 17.715 53.862 14.746 78.131-9.728 7.782-7.782 15.258-15.974 23.040-24.269 9.83 9.421 18.33 17.101 26.419 25.19 7.987 7.987 15.667 16.486 23.859 25.088-8.602 8.602-16.589 16.384-24.474 24.269-23.347 23.347-26.522 47.616-9.83 76.186 16.384 28.058 28.877 57.754 37.171 89.293 8.602 32.973 27.853 47.718 61.952 47.718 10.752 0 21.606 0 33.792 0-0.819 24.064-1.741 47.002-2.662 70.963zM511.283 651.878c112.538-0.614 202.445-91.75 201.728-204.493-0.717-112.128-92.467-202.547-204.8-201.728-111.821 0.819-201.933 92.262-201.421 204.186 0.512 112.23 92.058 202.65 204.493 202.035zM387.277 448.819c-0.102-68.403 54.374-122.88 122.88-122.778 68.096 0.102 122.266 54.17 122.368 122.266 0.205 67.994-54.886 123.085-122.88 122.982-67.686 0-122.266-54.682-122.368-122.47z" />
<glyph unicode="&#xe917;" glyph-name="close" d="M508.109 910.848c254.874-0.102 461.517-206.746 461.619-461.619s-207.667-462.336-462.541-462.029c-254.259 0.307-461.312 207.872-461.107 462.336s207.462 461.414 462.029 461.312zM905.011 448.512c0.512 218.419-177.254 396.698-396.288 397.722-218.010 1.024-397.005-177.152-397.926-396.083-0.922-218.214 177.050-397.312 395.776-398.131 218.829-0.922 397.926 177.357 398.438 396.493zM507.187 478.925c40.141 40.243 78.643 78.746 117.043 117.146 2.458 2.458 4.71 4.915 7.373 7.168 9.421 8.090 22.426 7.782 30.515-0.717 7.782-8.192 8.294-20.992 0.102-29.696-10.24-11.059-21.094-21.402-31.744-32.051-30.208-30.208-60.416-60.416-91.546-91.546 2.662-2.867 5.12-5.53 7.578-8.090 36.762-36.762 73.523-73.523 110.182-110.285 2.458-2.458 4.915-4.813 6.963-7.475 6.451-8.704 5.53-20.685-1.946-28.16-7.168-7.168-18.534-8.499-27.341-2.662-3.072 2.048-5.734 4.813-8.397 7.475-36.557 36.454-73.011 73.011-109.466 109.568-2.662 2.662-4.506 5.939-7.168 9.523-4.403-4.096-7.168-6.554-9.728-9.114-36.557-36.454-73.011-73.011-109.568-109.466-2.662-2.662-5.222-5.427-8.294-7.578-8.909-6.246-20.89-5.018-28.16 2.56s-8.192 19.763-1.434 28.16c4.198 5.325 9.318 9.933 14.234 14.746 36.557 36.454 73.011 72.909 110.387 110.285-2.765 2.97-5.12 5.632-7.68 8.192-36.454 36.557-73.011 73.011-109.466 109.568-2.662 2.662-5.427 5.222-7.68 8.294-6.451 8.806-5.53 20.685 1.946 28.16 7.373 7.475 19.354 8.499 28.16 2.15 2.765-1.946 5.12-4.506 7.475-6.963 36.557-36.454 73.011-73.011 109.466-109.568 2.867-2.662 5.018-5.734 8.192-9.626z" />
</font>
</defs>
</svg>
